#N canvas 94 23 838 613 12;
#X obj 333 39 table chicopack-\$1;
#X obj 154 36 inlet;
#X msg 144 202 bang;
#X msg 227 200 stop;
#X obj 157 337 throw~ left;
#X obj 244 337 throw~ right;
#X obj 161 296 *~;
#X obj 308 175 * 1.5708;
#X floatatom 308 129 5 0 0 0 - - -;
#X obj 308 152 clip 0 1;
#X obj 307 204 cos~;
#X obj 349 204 sin~;
#X obj 244 300 *~;
#X obj 77 171 dbtorms;
#X obj 34 133 clip 0 100;
#X obj 78 199 t b f;
#X obj 86 300 line~;
#X msg 84 273 \$1 10;
#X obj 244 274 *~;
#X obj 86 241 f 1;
#X obj -9 189 loadbang;
#X obj 217 99 / 100;
#X text 274 98 pan: 0 a 100;
#X text 32 83 amp: 0 a 100;
#X obj 456 142 array size chicopack-\$1;
#X floatatom 411 165 5 0 0 0 - - -;
#X obj 301 70 t l b;
#X obj 473 105 bng 15 250 50 0 empty empty empty 17 7 0 10 -262144
-1 -1;
#X obj 390 303 f;
#X obj 151 74 unpack 0 0 0;
#X obj 431 302 pow;
#X msg 431 279 2;
#X obj 469 290 / 12;
#X obj 428 224 t b b f;
#X obj 415 336 /;
#X obj 389 412 pack 0 0;
#X obj 383 372 f;
#X obj 418 361 t b f;
#X floatatom 503 330 5 0 0 0 - - -;
#X obj 353 492 line~;
#X msg 413 461 0 \, \$1 \$2;
#X obj 161 246 tabread4~ chicopack-\$1;
#X obj 466 394 / 44.1;
#X floatatom 499 428 5 0 0 0 - - -;
#X connect 1 0 26 0;
#X connect 3 0 41 0;
#X connect 6 0 4 0;
#X connect 7 0 11 0;
#X connect 7 0 10 0;
#X connect 8 0 9 0;
#X connect 9 0 7 0;
#X connect 10 0 6 1;
#X connect 11 0 12 1;
#X connect 12 0 5 0;
#X connect 13 0 15 0;
#X connect 14 0 13 0;
#X connect 15 0 2 0;
#X connect 15 1 19 0;
#X connect 16 0 18 1;
#X connect 17 0 16 0;
#X connect 18 0 12 0;
#X connect 18 0 6 0;
#X connect 19 0 17 0;
#X connect 20 0 19 0;
#X connect 21 0 8 0;
#X connect 24 0 25 0;
#X connect 25 0 28 1;
#X connect 25 0 36 1;
#X connect 26 0 29 0;
#X connect 26 1 24 0;
#X connect 27 0 24 0;
#X connect 28 0 34 0;
#X connect 29 0 14 0;
#X connect 29 1 21 0;
#X connect 29 2 33 0;
#X connect 30 0 34 1;
#X connect 30 0 38 0;
#X connect 31 0 30 0;
#X connect 32 0 30 1;
#X connect 33 0 28 0;
#X connect 33 1 31 0;
#X connect 33 2 32 0;
#X connect 34 0 37 0;
#X connect 35 0 40 0;
#X connect 36 0 35 0;
#X connect 37 0 36 0;
#X connect 37 1 42 0;
#X connect 39 0 41 0;
#X connect 40 0 39 0;
#X connect 41 0 18 0;
#X connect 42 0 35 1;
#X connect 42 0 43 0;
